<svg xmlns="http://www.w3.org/2000/svg" width="138" height="78.101" viewBox="0 0 138 78.101"><g transform="translate(-70.591 -174.198)"><path d="M208.591,213.254a11.227,11.227,0,0,0-3.281-7.983l-27.8-27.8a11.209,11.209,0,0,0-8.088-3.271H109.759a11.4,11.4,0,0,0-2.354.214,11.024,11.024,0,0,0-1.708.5c-.107.04-.221.058-.327.107a11.292,11.292,0,0,0-4.1,2.844l-27.4,27.4a11.351,11.351,0,0,0,0,15.966l27.408,27.4a11.276,11.276,0,0,0,4.087,2.843c.107.045.227.064.339.107a11.122,11.122,0,0,0,1.7.5,11.444,11.444,0,0,0,2.358.214h59.675a11.217,11.217,0,0,0,8.073-3.272l27.8-27.788A11.22,11.22,0,0,0,208.591,213.254Zm-43.629,24.911-9.928-7.613H114.367l-18.23-17.3,18.23-17.336h50.595l18.114,17.336-18.114,17.3Z" transform="translate(0 0)" fill="#e0bb30"/><rect width="11.975" height="11.827" transform="translate(114.294 207.334)" fill="#fff"/><rect width="11.827" height="11.827" transform="translate(153.061 207.334)" fill="#fff"/></g></svg>